<?xml version="1.0" encoding="UTF-8" standalone="no"?>
<!DOCTYPE svg PUBLIC "-//W3C//DTD SVG 1.1//EN" "http://www.w3.org/Graphics/SVG/1.1/DTD/svg11.dtd">
<svg width="100%" height="100%" viewBox="0 0 1000 1000" version="1.1" xmlns="http://www.w3.org/2000/svg" xmlns:xlink="http://www.w3.org/1999/xlink" xml:space="preserve" xmlns:serif="http://www.serif.com/" style="fill-rule:evenodd;clip-rule:evenodd;">
    <g transform="matrix(2.144,0,0,2.144,500,500)">
        <g transform="matrix(1,0,0,1,-250,-250)">
            <g transform="matrix(0.839938,0,0,0.839938,40.0155,40.0155)">
                <clipPath id="_clip1">
                    <rect x="0" y="0" width="500" height="500"/>
                </clipPath>
                <g clip-path="url(#_clip1)">
                    <path d="M284.94,175.224C311.614,178.929 332.125,188.696 346.475,204.526C360.825,220.356 368,241.575 368,268.182C368,301.189 357.28,327.123 335.839,345.984C314.399,364.846 285.446,374.276 248.981,374.276C226.696,374.276 209.645,371.245 197.828,365.182L197.828,389.938C197.828,418.903 200.191,441.469 204.918,457.635C185.335,464.372 165.583,476.16 145.662,493C139.922,490.642 135.701,485.927 133,478.854C134.688,470.097 135.954,461.004 136.798,451.573C137.643,442.142 138.065,427.828 138.065,408.63L138.065,124.703C138.065,99.106 143.636,77.55 154.778,60.036C165.92,42.522 180.692,29.471 199.094,20.883C217.495,12.294 237.838,8 260.123,8C289.836,8 312.795,15.494 329.002,30.482C345.209,45.47 353.313,66.436 353.313,93.38C353.313,115.946 347.404,134.302 335.586,148.448C323.769,162.594 306.887,171.519 284.94,175.224ZM238.081,346C259.383,346 275.528,339.783 286.517,327.349C297.506,314.914 303,297.439 303,274.923C303,248.71 295.815,228.715 281.445,214.936C267.075,201.158 246.873,194.268 220.837,194.268C219.823,190.572 219.316,186.875 219.316,183.178C219.316,177.129 220.33,172.424 222.359,169.064C244.337,167.047 261.073,159.906 272.569,147.64C284.065,135.374 289.813,118.655 289.813,97.483C289.813,79.335 285.418,64.885 276.627,54.131C267.836,43.377 254.987,38 238.081,38C223.542,38 213.061,42.957 206.636,52.871C200.212,62.785 197,80.848 197,107.061L197,328.357C202.072,334.406 207.904,338.859 214.498,341.715C221.091,344.572 228.952,346 238.081,346Z" style="fill:white;fill-rule:nonzero;stroke:black;stroke-width:10px;"/>
                </g>
            </g>
        </g>
    </g>
</svg>
